<?xml version="1.0" encoding="UTF-8"?>
<!DOCTYPE svg PUBLIC "-//W3C//DTD SVG 1.1//EN" "http://www.w3.org/Graphics/SVG/1.1/DTD/svg11.dtd">
<svg xmlns="http://www.w3.org/2000/svg" version="1.1" width="636px" height="140px" style="shape-rendering:geometricPrecision; text-rendering:geometricPrecision; image-rendering:optimizeQuality; fill-rule:evenodd; clip-rule:evenodd" xmlns:xlink="http://www.w3.org/1999/xlink">
<g><path style="opacity:0.916" fill="#0104ff" d="M 48.5,60.5 C 34.6702,52.5723 20.0035,44.9057 4.5,37.5C 3.89333,37.6236 3.55999,37.9569 3.5,38.5C 2.16667,37.8333 0.833333,37.1667 -0.5,36.5C -0.5,34.5 -0.5,32.5 -0.5,30.5C 16.236,20.7987 33.5693,12.132 51.5,4.5C 68.0558,11.7772 84.3891,19.6105 100.5,28C 104.01,31.048 104.343,34.3813 101.5,38C 85.1437,46.6803 68.477,54.5136 51.5,61.5C 50.2739,61.4805 49.2739,61.1471 48.5,60.5 Z M 86.5,33.5 C 74.7328,38.8831 63.0662,44.5498 51.5,50.5C 39.6156,44.7256 27.9489,38.7256 16.5,32.5C 28.2672,27.1169 39.9338,21.4502 51.5,15.5C 63.3844,21.2744 75.0511,27.2744 86.5,33.5 Z"/></g>
<g><path style="opacity:0.482" fill="#0a09ff" d="M 86.5,33.5 C 75.0511,27.2744 63.3844,21.2744 51.5,15.5C 39.9338,21.4502 28.2672,27.1169 16.5,32.5C 27.2129,25.9687 38.8795,19.9687 51.5,14.5C 64.107,20.1368 76.4403,26.3035 88.5,33C 87.7445,34.3803 87.0778,34.547 86.5,33.5 Z"/></g>
<g><path style="opacity:0.952" fill="#0003ff" d="M 166.5,19.5 C 172.722,20.1203 178.889,21.1203 185,22.5C 190.369,20.4262 194.703,21.7595 198,26.5C 201.729,31.2738 203.062,36.6071 202,42.5C 199.794,46.1252 196.627,47.2919 192.5,46C 188.452,42.2838 184.118,38.9504 179.5,36C 175.518,33.8555 171.685,34.0222 168,36.5C 167.161,39.1396 167.661,41.4729 169.5,43.5C 177.608,46.3698 185.608,49.5365 193.5,53C 202.651,59.1554 205.818,67.6554 203,78.5C 200.649,85.5192 196.149,90.6859 189.5,94C 175.335,99.6392 161.002,99.9725 146.5,95C 140.17,91.8637 136.67,86.697 136,79.5C 135.333,76.1667 135.333,72.8333 136,69.5C 138.153,67.5561 140.653,67.0561 143.5,68C 146.388,71.2216 148.888,74.7216 151,78.5C 157.784,83.752 165.118,84.752 173,81.5C 173.743,79.5594 173.576,77.7261 172.5,76C 167.739,73.4128 162.739,71.4128 157.5,70C 143.177,64.7035 136.677,54.5369 138,39.5C 143.518,27.1477 153.018,20.481 166.5,19.5 Z"/></g>
<g><path style="opacity:0.953" fill="#0003ff" d="M 243.5,19.5 C 251.017,19.0079 257.184,21.6745 262,27.5C 272.702,45.5699 282.369,64.2366 291,83.5C 293.204,85.0169 295.538,86.3502 298,87.5C 299.462,93.0514 297.295,96.2181 291.5,97C 280.511,98.7965 269.511,98.7965 258.5,97C 254.234,95.6344 252.734,92.8011 254,88.5C 255.242,87.1279 256.742,86.1279 258.5,85.5C 259.614,84.277 259.781,82.9437 259,81.5C 254.519,79.9478 249.853,79.2811 245,79.5C 241.5,79.6667 238,79.8333 234.5,80C 232.901,81.0658 231.901,82.5658 231.5,84.5C 233.583,85.9587 235.75,87.2921 238,88.5C 239.041,91.6363 238.207,94.1363 235.5,96C 226.922,98.7018 218.256,99.0351 209.5,97C 205.787,95.3088 204.621,92.4755 206,88.5C 209.858,86.9053 213.191,84.572 216,81.5C 223.107,67.9541 229.107,53.9541 234,39.5C 232.518,30.3738 235.685,23.7072 243.5,19.5 Z M 244.5,50.5 C 246.017,50.5106 247.184,51.1772 248,52.5C 249.833,56.1667 251.667,59.8333 253.5,63.5C 253.291,64.086 252.957,64.586 252.5,65C 247.913,65.7991 243.413,65.6324 239,64.5C 239.934,59.5393 241.768,54.8726 244.5,50.5 Z"/></g>
<g><path style="opacity:0.949" fill="#0003ff" d="M 425.5,19.5 C 432.589,19.8461 439.589,20.8461 446.5,22.5C 453.178,19.9358 458.345,21.6025 462,27.5C 465.197,33.8895 465.197,40.2228 462,46.5C 457.948,48.9423 453.781,49.109 449.5,47C 446.462,44.2974 443.795,41.2974 441.5,38C 426.167,30.504 417.5,35.3374 415.5,52.5C 415.765,62.8059 419.431,71.6392 426.5,79C 431.013,81.969 435.513,82.1356 440,79.5C 440.309,78.2341 440.809,77.0674 441.5,76C 439.838,72.1883 436.838,70.5216 432.5,71C 428.53,65.5683 429.864,61.5683 436.5,59C 448.295,55.8572 459.961,56.5239 471.5,61C 475.173,67.1121 473.507,70.9454 466.5,72.5C 461.864,87.3022 451.864,95.8022 436.5,98C 417.508,99.9172 402.675,93.0839 392,77.5C 383.4,57.3986 387.567,40.5652 404.5,27C 411.171,23.1683 418.171,20.6683 425.5,19.5 Z"/></g>
<g><path style="opacity:0.958" fill="#0003ff" d="M 308.5,20.5 C 323.157,21.334 337.823,21.5006 352.5,21C 370.071,23.9839 375.904,33.8172 370,50.5C 367.463,53.372 364.63,55.872 361.5,58C 365.6,60.4674 369.434,63.3007 373,66.5C 375.144,72.4124 376.978,78.4124 378.5,84.5C 387.231,88.996 386.898,93.496 377.5,98C 369.559,100.286 361.892,99.6196 354.5,96C 352.291,94.1266 350.458,91.96 349,89.5C 346.817,82.4289 344.484,75.4289 342,68.5C 335.299,63.3912 332.466,65.0579 333.5,73.5C 332.527,80.0318 334.694,85.0318 340,88.5C 340.97,93.5482 338.803,96.3816 333.5,97C 322.972,99.0921 312.638,98.4254 302.5,95C 298.067,90.1696 298.9,86.3362 305,83.5C 306.044,81.2852 306.71,78.9519 307,76.5C 307.667,63.8333 307.667,51.1667 307,38.5C 306.573,34.4729 304.406,31.9729 300.5,31C 299.074,28.2886 299.408,25.7886 301.5,23.5C 303.885,22.3385 306.219,21.3385 308.5,20.5 Z M 334.5,33.5 C 340.938,32.9342 344.271,35.9342 344.5,42.5C 344.482,49.8512 340.815,53.5179 333.5,53.5C 333.061,46.9384 333.394,40.2718 334.5,33.5 Z"/></g>
<g><path style="opacity:0.953" fill="#0003ff" d="M 489.5,20.5 C 498.663,19.9069 507.663,20.7402 516.5,23C 519.207,24.8637 520.041,27.3637 519,30.5C 517,31.8333 515,33.1667 513,34.5C 510.075,49.7449 509.742,65.0783 512,80.5C 513.86,83.2719 516.194,85.6053 519,87.5C 520.091,92.0976 518.257,94.9309 513.5,96C 503.549,98.4778 493.549,98.8111 483.5,97C 478.197,96.3816 476.03,93.5482 477,88.5C 479.412,86.4292 481.412,84.0959 483,81.5C 484.613,67.1535 484.613,52.8202 483,38.5C 481.333,35.5 479,33.1667 476,31.5C 475.333,29.5 475.333,27.5 476,25.5C 480.311,23.1377 484.811,21.4711 489.5,20.5 Z"/></g>
<g><path style="opacity:0.956" fill="#0003ff" d="M 529.5,20.5 C 536.615,20.0753 543.615,20.5753 550.5,22C 561.727,32.397 573.394,42.2303 585.5,51.5C 586.086,51.2907 586.586,50.9574 587,50.5C 587.667,45.8333 587.667,41.1667 587,36.5C 584.667,33.8333 582.333,31.1667 580,28.5C 579.478,24.4038 581.312,21.9038 585.5,21C 592.5,20.3333 599.5,20.3333 606.5,21C 610.998,22.1723 612.832,25.0057 612,29.5C 610.12,31.9531 607.787,33.9531 605,35.5C 604.667,37.1667 604.333,38.8333 604,40.5C 603.667,56.8333 603.333,73.1667 603,89.5C 602.366,96.5081 598.866,99.0081 592.5,97C 579.582,84.9083 566.249,73.4083 552.5,62.5C 550.575,62.5904 549.408,63.5904 549,65.5C 548.228,70.9042 548.561,76.2375 550,81.5C 551.721,83.7107 553.721,85.7107 556,87.5C 556.706,89.9712 556.373,92.3046 555,94.5C 546.083,99.0573 536.916,99.5573 527.5,96C 524.808,94.1201 523.641,91.6201 524,88.5C 525.721,86.2893 527.721,84.2893 530,82.5C 533.23,67.5079 533.23,52.5079 530,37.5C 528.493,34.5736 526.159,32.5736 523,31.5C 520.88,28.6623 521.047,25.9956 523.5,23.5C 525.444,22.1993 527.444,21.1993 529.5,20.5 Z"/></g>
<g><path style="opacity:0.467" fill="#0909ff" d="M 3.5,38.5 C 3.55999,37.9569 3.89333,37.6236 4.5,37.5C 20.0035,44.9057 34.6702,52.5723 48.5,60.5C 33.3728,53.4364 18.3728,46.1031 3.5,38.5 Z"/></g>
<g><path style="opacity:0.908" fill="#0104ff" d="M 100.5,61.5 C 100.44,60.9569 100.107,60.6236 99.5,60.5C 90.6541,64.5663 82.6541,68.8996 75.5,73.5C 68.1449,78.511 60.1449,82.511 51.5,85.5C 50.5836,85.4573 49.9169,85.1239 49.5,84.5C 45.0232,81.2266 39.6899,78.2266 33.5,75.5C 32.8933,75.6236 32.56,75.9569 32.5,76.5C 21.0879,71.6273 10.0879,65.9607 -0.5,59.5C -0.5,57.5 -0.5,55.5 -0.5,53.5C 1.83574,51.6093 4.5024,51.1093 7.5,52C 22.0491,59.4414 36.7158,66.6081 51.5,73.5C 66.2842,66.6081 80.9509,59.4414 95.5,52C 102,50.5 104.5,53 103,59.5C 102.292,60.3805 101.458,61.0472 100.5,61.5 Z"/></g>
<g><path style="opacity:0.49" fill="#0a0aff" d="M 100.5,61.5 C 92.293,65.7702 83.9596,69.7702 75.5,73.5C 82.6541,68.8996 90.6541,64.5663 99.5,60.5C 100.107,60.6236 100.44,60.9569 100.5,61.5 Z"/></g>
<g><path style="opacity:0.916" fill="#0104ff" d="M 73.5,98.5 C 73.44,97.9569 73.1067,97.6236 72.5,97.5C 65.6471,100.562 59.6471,103.895 54.5,107.5C 52.5,108.833 50.5,108.833 48.5,107.5C 34.003,99.2393 18.6697,91.2393 2.5,83.5C 1.89333,83.6236 1.55999,83.9569 1.5,84.5C 0.833333,84.1667 0.166667,83.8333 -0.5,83.5C -0.5,81.1667 -0.5,78.8333 -0.5,76.5C 2.40803,75.4309 5.40803,75.2642 8.5,76C 22.8333,83.1667 37.1667,90.3333 51.5,97.5C 65.8333,90.3333 80.1667,83.1667 94.5,76C 102.706,74.3587 105.04,77.192 101.5,84.5C 92.4235,89.7049 83.0902,94.3716 73.5,98.5 Z"/></g>
<g><path style="opacity:0.957" fill="#0a0aff" d="M 32.5,76.5 C 32.56,75.9569 32.8933,75.6236 33.5,75.5C 39.6899,78.2266 45.0232,81.2266 49.5,84.5C 43.7081,82.1041 38.0414,79.4374 32.5,76.5 Z"/></g>
<g><path style="opacity:0.498" fill="#0a0aff" d="M 73.5,98.5 C 67.2923,101.771 60.9589,104.771 54.5,107.5C 59.6471,103.895 65.6471,100.562 72.5,97.5C 73.1067,97.6236 73.44,97.9569 73.5,98.5 Z"/></g>
<g><path style="opacity:0.475" fill="#0909ff" d="M 1.5,84.5 C 1.55999,83.9569 1.89333,83.6236 2.5,83.5C 18.6697,91.2393 34.003,99.2393 48.5,107.5C 32.706,100.103 17.0394,92.4364 1.5,84.5 Z"/></g>
</svg>
