<?xml version="1.0" encoding="UTF-8"?>
<!DOCTYPE svg PUBLIC "-//W3C//DTD SVG 1.1//EN" "http://www.w3.org/Graphics/SVG/1.1/DTD/svg11.dtd">
<svg xmlns="http://www.w3.org/2000/svg" version="1.1" width="103px" height="103px" style="shape-rendering:geometricPrecision; text-rendering:geometricPrecision; image-rendering:optimizeQuality; fill-rule:evenodd; clip-rule:evenodd" xmlns:xlink="http://www.w3.org/1999/xlink">
<g><path style="opacity:0.916" fill="#011dff" d="M 49.5,-0.5 C 50.5,-0.5 51.5,-0.5 52.5,-0.5C 69.1322,8.1501 85.7988,16.8168 102.5,25.5C 102.5,27.5 102.5,29.5 102.5,31.5C 86.294,39.7697 69.9607,47.7697 53.5,55.5C 46.7114,53.1121 40.0447,50.1121 33.5,46.5C 32.8933,46.6236 32.56,46.9569 32.5,47.5C 21.3732,42.4366 10.3732,37.1033 -0.5,31.5C -0.5,29.5 -0.5,27.5 -0.5,25.5C 16.2012,16.8168 32.8678,8.1501 49.5,-0.5 Z M 50.5,9.5 C 62.1401,15.3201 73.8068,21.1534 85.5,27C 73.9011,33.8025 61.9011,39.4692 49.5,44C 38.3433,38.5886 27.3433,32.922 16.5,27C 28.0511,21.3923 39.3845,15.559 50.5,9.5 Z"/></g>
<g><path style="opacity:0.957" fill="#0921ff" d="M 52.5,-0.5 C 53.5,-0.5 54.5,-0.5 55.5,-0.5C 70.9761,7.73864 86.6428,15.7386 102.5,23.5C 102.5,24.1667 102.5,24.8333 102.5,25.5C 85.7988,16.8168 69.1322,8.1501 52.5,-0.5 Z"/></g>
<g><path style="opacity:0.471" fill="#0a21ff" d="M 46.5,-0.5 C 47.5,-0.5 48.5,-0.5 49.5,-0.5C 32.8678,8.1501 16.2012,16.8168 -0.5,25.5C -0.5,24.8333 -0.5,24.1667 -0.5,23.5C 15.3572,15.7386 31.0239,7.73864 46.5,-0.5 Z"/></g>
<g><path style="opacity:0.919" fill="#011dff" d="M 51.5,68.5 C 51.56,69.0431 51.8933,69.3764 52.5,69.5C 61.5,65 70.5,60.5 79.5,56C 80.7383,55.31 80.7383,54.81 79.5,54.5C 85.3839,50.7264 91.7173,47.7264 98.5,45.5C 99.8492,45.8457 101.183,46.179 102.5,46.5C 102.5,49.5 102.5,52.5 102.5,55.5C 86.3991,63.0501 70.3991,70.8834 54.5,79C 52.1667,79.6667 49.8333,79.6667 47.5,79C 31.6009,70.8834 15.6009,63.0501 -0.5,55.5C -0.5,52.5 -0.5,49.5 -0.5,46.5C 1.45464,45.6765 3.45464,45.5099 5.5,46C 21.009,53.255 36.3423,60.755 51.5,68.5 Z"/></g>
<g><path style="opacity:0.973" fill="#1024ff" d="M 32.5,47.5 C 32.56,46.9569 32.8933,46.6236 33.5,46.5C 40.0447,50.1121 46.7114,53.1121 53.5,55.5C 46.0068,54.2585 39.0068,51.5918 32.5,47.5 Z"/></g>
<g><path style="opacity:0.973" fill="#0a21ff" d="M 79.5,54.5 C 80.7383,54.81 80.7383,55.31 79.5,56C 70.5,60.5 61.5,65 52.5,69.5C 51.8933,69.3764 51.56,69.0431 51.5,68.5C 60.8333,63.8333 70.1667,59.1667 79.5,54.5 Z"/></g>
<g><path style="opacity:0.938" fill="#0109ff" d="M 102.5,70.5 C 102.5,73.1667 102.5,75.8333 102.5,78.5C 86.6428,86.2614 70.9761,94.2614 55.5,102.5C 52.5,102.5 49.5,102.5 46.5,102.5C 45.8333,101.833 45.1667,101.167 44.5,100.5C 31.3373,92.9053 17.3373,85.572 2.5,78.5C 1.89333,78.6236 1.55999,78.9569 1.5,79.5C 0.833333,79.1667 0.166667,78.8333 -0.5,78.5C -0.5,75.8333 -0.5,73.1667 -0.5,70.5C 1.73752,69.4634 4.07085,69.2967 6.5,70C 21.4111,77.3722 36.2445,84.8722 51,92.5C 65.7555,84.8722 80.5889,77.3722 95.5,70C 97.9291,69.2967 100.262,69.4634 102.5,70.5 Z"/></g>
<g><path style="opacity:0.471" fill="#090dff" d="M 1.5,79.5 C 1.55999,78.9569 1.89333,78.6236 2.5,78.5C 17.3373,85.572 31.3373,92.9053 44.5,100.5C 30.0395,93.7698 15.7061,86.7698 1.5,79.5 Z"/></g>
</svg>
